<svg width="24" height="24" viewBox="0 0 24 24" fill="none" xmlns="http://www.w3.org/2000/svg">
<path d="M18.1453 23.0772C16.8933 24.2909 15.5262 24.0993 14.2103 23.5244C12.8177 22.9367 11.5401 22.9111 10.0708 23.5244C8.23104 24.3165 7.26005 24.0865 6.1613 23.0772C-0.073472 16.6508 0.846412 6.86426 7.92441 6.50653C9.64919 6.59596 10.8502 7.45196 11.8595 7.52862C13.3671 7.22199 14.8108 6.34044 16.4206 6.45542C18.3498 6.60874 19.8062 7.37531 20.7645 8.75513C16.7783 11.1443 17.7237 16.3953 21.3777 17.8645C20.6495 19.781 19.704 21.6846 18.1326 23.09L18.1453 23.0772ZM11.7317 6.42987C11.5401 3.58079 13.8525 1.22997 16.51 1C16.8805 4.29625 13.5204 6.74927 11.7317 6.42987Z" fill="#333333"/>
</svg>
