<svg width="24" height="25" viewBox="0 0 24 25" fill="none" xmlns="http://www.w3.org/2000/svg">
<path d="M24 18.0192C24 18.7264 23.719 19.4047 23.219 19.9048C22.7189 20.4049 22.0406 20.6859 21.3333 20.6859H2.66667C1.95942 20.6859 1.28115 20.4049 0.781049 19.9048C0.280952 19.4047 0 18.7264 0 18.0192V6.01921C0 5.31196 0.280952 4.63368 0.781049 4.13359C1.28115 3.63349 1.95942 3.35254 2.66667 3.35254H21.3333C22.0406 3.35254 22.7189 3.63349 23.219 4.13359C23.719 4.63368 24 5.31196 24 6.01921V18.0192Z" fill="#006A4D"/>
<path d="M10.6667 16.3524C13.244 16.3524 15.3333 14.263 15.3333 11.6857C15.3333 9.10838 13.244 7.01904 10.6667 7.01904C8.08934 7.01904 6 9.10838 6 11.6857C6 14.263 8.08934 16.3524 10.6667 16.3524Z" fill="#F42A41"/>
</svg>
