<svg width="24" height="24" viewBox="0 0 24 24" fill="none" xmlns="http://www.w3.org/2000/svg">
<path d="M19.5 3H4.5C3.67157 3 3 3.67157 3 4.5V19.5C3 20.3284 3.67157 21 4.5 21H19.5C20.3284 21 21 20.3284 21 19.5V4.5C21 3.67157 20.3284 3 19.5 3Z" stroke="#22215B" stroke-linecap="round" stroke-linejoin="round"/>
<path d="M11.2927 10.4124H10.4438V15.9801H9.09548V15.9701L9.0855 15.9801L6.06928 13.8984V12.5637C7.03474 11.7802 8.04347 11.2457 9.09548 10.9602V10.4124H5.5V9.29681H11.2927V10.4124ZM9.09548 14.5259V12.2849C8.40968 12.5571 7.82042 12.8791 7.3277 13.251L9.09548 14.5259Z" fill="#22215B"/>
<path d="M13.9897 10.4124H13.1408V15.9801H11.7425V11.0299C11.7425 10.7709 11.7059 10.6049 11.6327 10.5319C11.5661 10.4522 11.4263 10.4124 11.2132 10.4124H10.8936V9.29681H11.393C11.6127 9.29681 11.7792 9.4097 11.8924 9.63546C11.8258 9.27689 11.7925 8.95817 11.7925 8.67928V8.5H13.1408V9.29681H13.9897V10.4124Z" fill="#22215B"/>
<path d="M14.6542 12.0359C14.3213 11.7238 14.1548 11.3254 14.1548 10.8406C14.1548 10.3559 14.3213 9.96082 14.6542 9.65538C14.9871 9.34993 15.4166 9.19721 15.9426 9.19721C16.4686 9.19721 16.8947 9.34993 17.221 9.65538C17.5539 9.96082 17.7204 10.3559 17.7204 10.8406C17.7204 11.3254 17.5539 11.7238 17.221 12.0359C16.8947 12.3413 16.4686 12.494 15.9426 12.494C15.4166 12.494 14.9871 12.3413 14.6542 12.0359ZM16.372 11.3088C16.4719 11.1892 16.5219 11.0332 16.5219 10.8406C16.5219 10.6481 16.4719 10.492 16.372 10.3725C16.2722 10.2463 16.129 10.1833 15.9426 10.1833C15.7562 10.1833 15.6097 10.2463 15.5031 10.3725C15.4033 10.492 15.3533 10.6481 15.3533 10.8406C15.3533 11.0332 15.4033 11.1892 15.5031 11.3088C15.6097 11.4283 15.7562 11.488 15.9426 11.488C16.129 11.488 16.2722 11.4283 16.372 11.3088ZM14.3046 14.0179V12.6534L18 14.6653V16L14.3046 14.0179Z" fill="#22215B"/>
</svg>
