<svg width="24" height="24" viewBox="0 0 24 24" fill="none" xmlns="http://www.w3.org/2000/svg">
<g clip-path="url(#clip0_2_2770)">
<path d="M23.4392 12.2244C23.4392 11.2412 23.3594 10.5236 23.1867 9.77954H11.9588V14.2175H18.5493C18.4165 15.3204 17.699 16.9814 16.1045 18.0975L16.0821 18.246L19.6322 20.9962L19.8781 21.0208C22.137 18.9346 23.4392 15.8652 23.4392 12.2244Z" fill="#4285F4"/>
<path d="M11.9588 23.9176C15.1876 23.9176 17.8982 22.8545 19.8781 21.0209L16.1045 18.0976C15.0946 18.8018 13.7393 19.2934 11.9588 19.2934C8.79637 19.2934 6.11231 17.2074 5.15551 14.324L5.01527 14.3359L1.32385 17.1927L1.27557 17.3269C3.24211 21.2334 7.28153 23.9176 11.9588 23.9176Z" fill="#34A853"/>
<path d="M5.15551 14.324C4.90305 13.58 4.75695 12.7826 4.75695 11.9589C4.75695 11.135 4.90305 10.3378 5.14223 9.59366L5.13554 9.43519L1.39786 6.53247L1.27557 6.59064C0.465069 8.21174 0 10.0322 0 11.9589C0 13.8855 0.465069 15.7059 1.27557 17.327L5.15551 14.324Z" fill="#FBBC05"/>
<path d="M11.9588 4.62403C14.2043 4.62403 15.7191 5.59402 16.5828 6.40461L19.9578 3.10928C17.885 1.1826 15.1876 0 11.9588 0C7.28153 0 3.24211 2.68406 1.27557 6.59056L5.14223 9.59359C6.11231 6.7102 8.79637 4.62403 11.9588 4.62403Z" fill="#EB4335"/>
</g>
<defs>
<clipPath id="clip0_2_2770">
<rect width="23.4504" height="24" fill="white"/>
</clipPath>
</defs>
</svg>
