<svg width="16" height="22" viewBox="0 0 16 22" fill="none" xmlns="http://www.w3.org/2000/svg">
<path d="M2.59999 7.79999V6.88571C2.59999 3.8468 5.00856 1.39999 7.99999 1.39999C10.9914 1.39999 13.4 3.8468 13.4 6.88571V7.79999M2.59999 7.79999C1.60999 7.79999 0.799988 8.62285 0.799988 9.62856V18.7714C0.799988 19.7771 1.60999 20.6 2.59999 20.6H13.4C14.39 20.6 15.2 19.7771 15.2 18.7714V9.62856C15.2 8.62285 14.39 7.79999 13.4 7.79999M2.59999 7.79999H13.4M7.99999 12.3714C8.98999 12.3714 9.79999 13.1943 9.79999 14.2C9.79999 15.2057 8.98999 16.0286 7.99999 16.0286C7.00999 16.0286 6.19999 15.2057 6.19999 14.2C6.19999 13.1943 7.00999 12.3714 7.99999 12.3714Z" stroke="#22215B" stroke-width="1.5"/>
</svg>
