<svg width="30" height="30" viewBox="0 0 30 30" fill="none" xmlns="http://www.w3.org/2000/svg">
<path d="M26.25 21.25C26.25 21.9404 25.6904 22.5 25 22.5H16.25C15.5596 22.5 15 21.9404 15 21.25C15 20.5596 15.5596 20 16.25 20H25C25.6904 20 26.25 20.5596 26.25 21.25ZM26.25 15C26.25 15.6904 25.6904 16.25 25 16.25H5C4.30964 16.25 3.75 15.6904 3.75 15C3.75 14.3096 4.30964 13.75 5 13.75H25C25.6904 13.75 26.25 14.3096 26.25 15ZM26.25 8.75C26.25 9.44036 25.6904 10 25 10H5C4.30964 10 3.75 9.44036 3.75 8.75C3.75 8.05964 4.30964 7.5 5 7.5H25C25.6904 7.5 26.25 8.05964 26.25 8.75Z" fill="#22215B"/>
</svg>
