<svg width="158" height="158" viewBox="0 0 158 158" fill="none" xmlns="http://www.w3.org/2000/svg">
<mask id="mask0_2_89" style="mask-type:alpha" maskUnits="userSpaceOnUse" x="0" y="0" width="158" height="158">
<circle cx="79" cy="79" r="79" fill="url(#paint0_linear_2_89)"/>
</mask>
<g mask="url(#mask0_2_89)">
<circle cx="78.8583" cy="79.3136" r="78.8583" fill="#FF508C"/>
<circle cx="79" cy="79.4553" r="79" fill="#FF508C"/>
<ellipse opacity="0.5" cx="92.187" cy="62.8933" rx="68.7979" ry="58.7194" transform="rotate(38.3163 92.187 62.8933)" fill="white" fill-opacity="0.15"/>
<path d="M108.629 116.638C100.136 121.188 84.9194 124.289 77.0616 122.325C84.9194 121.483 100.354 119.799 115.084 107.135C106.289 112.034 86.8838 113 78.8074 111.1C69.2658 108.854 65.0752 106.89 54.9723 97.6291C54.9723 97.6291 56.8559 103.803 54.9723 107.135C54.9723 107.135 55.3357 104.582 53.9236 100.735C51.9595 95.3819 47.2954 91.4896 41.6735 90.5044C36.0467 89.5207 30.2989 91.5878 26.5811 95.95C26.5796 95.954 26.5731 95.9597 26.5682 95.9669C13.8499 110.917 31.0078 143.883 70.2587 145.581C93.981 146.217 111.203 132.067 116.265 127.65C131.226 114.596 143.228 91.3047 141.521 70.6879C140.678 76.191 136.412 101.754 108.629 116.638Z" fill="white"/>
<path d="M17.0056 102.954L24.0214 100.429L23.4602 106.322L17.0056 102.954Z" fill="white"/>
<circle cx="33.4742" cy="101.018" r="5.16954" fill="#FF508C"/>
<circle cx="33.4742" cy="101.018" r="2.58477" fill="white"/>
</g>
<defs>
<linearGradient id="paint0_linear_2_89" x1="23.4297" y1="135.171" x2="147.787" y2="27.3346" gradientUnits="userSpaceOnUse">
<stop stop-color="#FF357D"/>
<stop offset="1" stop-color="#FF5996"/>
</linearGradient>
</defs>
</svg>
