<svg width="22" height="22" viewBox="0 0 22 22" fill="none" xmlns="http://www.w3.org/2000/svg">
<path d="M3.19999 18.8002C3.54435 18.4146 5.85784 16.5976 7.00775 15.7019C7.42655 15.3757 7.94027 15.2002 8.47113 15.2002C9.75479 15.2002 12.2284 15.2002 13.5182 15.2002C14.0553 15.2002 14.5741 15.3832 15.0065 15.7017C16.4913 16.7955 17.8833 17.6105 19.4 18.8002M4.99999 20.6H17C18.9882 20.6 20.6 18.9882 20.6 17V4.99999C20.6 3.01177 18.9882 1.39999 17 1.39999H4.99999C3.01177 1.39999 1.39999 3.01177 1.39999 4.99999V17C1.39999 18.9882 3.01177 20.6 4.99999 20.6ZM14.4385 8.27203C14.4385 6.44052 12.8924 4.94408 11 4.94408C9.10762 4.94408 7.56144 6.44052 7.56144 8.27203C7.56144 10.1035 9.10762 11.6 11 11.6C12.8924 11.6 14.4385 10.1035 14.4385 8.27203Z" stroke="#22215B" stroke-width="1.5"/>
</svg>
