<svg width="26" height="26" viewBox="0 0 26 26" fill="none" xmlns="http://www.w3.org/2000/svg">
<path d="M18.5125 2.99993C20.9375 2.99993 22.8875 4.96243 22.8875 7.37493C22.8875 9.73743 21.0125 11.6624 18.675 11.7499C18.567 11.7374 18.458 11.7374 18.35 11.7499M20.925 22.9999C21.825 22.8124 22.675 22.4499 23.375 21.9124C25.325 20.4499 25.325 18.0374 23.375 16.5749C22.6875 16.0499 21.85 15.6999 20.9625 15.4999M9.44999 11.5874C9.32499 11.5749 9.17499 11.5749 9.03749 11.5874C7.60275 11.5387 6.2433 10.9335 5.24703 9.89988C4.25077 8.86628 3.69592 7.48549 3.69999 6.04993C3.69999 2.98743 6.17499 0.499926 9.24999 0.499926C10.7203 0.473405 12.1409 1.03204 13.1993 2.05294C14.2577 3.07384 14.8672 4.47338 14.8937 5.94368C14.9203 7.41397 14.3616 8.83458 13.3407 9.89299C12.3198 10.9514 10.9203 11.5609 9.44999 11.5874ZM3.19999 16.1999C0.174994 18.2249 0.174994 21.5249 3.19999 23.5374C6.63749 25.8374 12.275 25.8374 15.7125 23.5374C18.7375 21.5124 18.7375 18.2124 15.7125 16.1999C12.2875 13.9124 6.64999 13.9124 3.19999 16.1999Z" stroke="#22215B" stroke-linecap="round" stroke-linejoin="round"/>
</svg>
