<svg width="26" height="26" viewBox="0 0 26 26" fill="none" xmlns="http://www.w3.org/2000/svg">
<path d="M25.5 11.625V3.125C25.5 1.25 24.7 0.5 22.7125 0.5H17.6625C15.675 0.5 14.875 1.25 14.875 3.125V11.625C14.875 13.5 15.675 14.25 17.6625 14.25H22.7125C24.7 14.25 25.5 13.5 25.5 11.625ZM25.5 22.875V20.625C25.5 18.75 24.7 18 22.7125 18H17.6625C15.675 18 14.875 18.75 14.875 20.625V22.875C14.875 24.75 15.675 25.5 17.6625 25.5H22.7125C24.7 25.5 25.5 24.75 25.5 22.875ZM11.125 14.375V22.875C11.125 24.75 10.325 25.5 8.3375 25.5H3.2875C1.3 25.5 0.5 24.75 0.5 22.875V14.375C0.5 12.5 1.3 11.75 3.2875 11.75H8.3375C10.325 11.75 11.125 12.5 11.125 14.375ZM11.125 3.125V5.375C11.125 7.25 10.325 8 8.3375 8H3.2875C1.3 8 0.5 7.25 0.5 5.375V3.125C0.5 1.25 1.3 0.5 3.2875 0.5H8.3375C10.325 0.5 11.125 1.25 11.125 3.125Z" stroke="#22215B" stroke-linecap="round" stroke-linejoin="round"/>
</svg>
