<svg width="30" height="30" viewBox="0 0 30 30" fill="none" xmlns="http://www.w3.org/2000/svg">
<path d="M19.4993 16.0118L19.2265 15.5928L19.2195 15.5973L19.2127 15.6021L19.4993 16.0118ZM19.4993 14.2916L19.2028 14.6942L19.2251 14.7106L19.2491 14.7245L19.4993 14.2916ZM12.605 9.21496L12.9015 8.81233L12.8874 8.80195L12.8726 8.79257L12.605 9.21496ZM11.1597 9.97321L11.6598 9.97176L11.6596 9.96301L11.1597 9.97321ZM11.1886 19.9454L10.6886 19.9468L10.6886 19.9609L10.6895 19.9751L11.1886 19.9454ZM12.6869 20.7764L12.929 21.2138L12.952 21.2011L12.9735 21.1861L12.6869 20.7764ZM7.5 3.5H22.5V2.5H7.5V3.5ZM26.5 7.5V22.5H27.5V7.5H26.5ZM22.5 26.5H7.5V27.5H22.5V26.5ZM3.5 22.5V7.5H2.5V22.5H3.5ZM7.5 26.5C5.29086 26.5 3.5 24.7091 3.5 22.5H2.5C2.5 25.2614 4.73858 27.5 7.5 27.5V26.5ZM26.5 22.5C26.5 24.7091 24.7091 26.5 22.5 26.5V27.5C25.2614 27.5 27.5 25.2614 27.5 22.5H26.5ZM22.5 3.5C24.7091 3.5 26.5 5.29086 26.5 7.5H27.5C27.5 4.73858 25.2614 2.5 22.5 2.5V3.5ZM7.5 2.5C4.73858 2.5 2.5 4.73858 2.5 7.5H3.5C3.5 5.29086 5.29086 3.5 7.5 3.5V2.5ZM19.7721 16.4308C20.2538 16.1172 20.6601 15.6832 20.6593 15.1261C20.6586 14.5579 20.2377 14.1408 19.7495 13.8587L19.2491 14.7245C19.6393 14.95 19.6593 15.106 19.6593 15.1275C19.6594 15.1602 19.6265 15.3324 19.2265 15.5928L19.7721 16.4308ZM19.7958 13.8889L12.9015 8.81233L12.3086 9.61758L19.2028 14.6942L19.7958 13.8889ZM12.8726 8.79257C12.4229 8.50771 11.8728 8.39442 11.3956 8.61721C10.8908 8.85289 10.6474 9.37665 10.6598 9.98342L11.6596 9.96301C11.6527 9.62559 11.7746 9.54387 11.8187 9.5233C11.8903 9.48984 12.0725 9.46951 12.3375 9.63734L12.8726 8.79257ZM10.6597 9.97466L10.6886 19.9468L11.6886 19.9439L11.6597 9.97176L10.6597 9.97466ZM10.6895 19.9751C10.7237 20.5497 10.9129 21.1016 11.4041 21.3639C11.8901 21.6235 12.4494 21.4793 12.929 21.2138L12.4448 20.3389C12.0685 20.5471 11.9091 20.4999 11.8752 20.4818C11.8465 20.4665 11.7145 20.366 11.6877 19.9156L10.6895 19.9751ZM12.9735 21.1861L19.7859 16.4215L19.2127 15.6021L12.4004 20.3666L12.9735 21.1861Z" fill="#22215B"/>
</svg>
